<svg width="116" height="36" viewBox="0 0 116 36" fill="none" xmlns="http://www.w3.org/2000/svg">
<path d="M19.9611 1.00461C19.4845 1.28316 18.5245 2.0631 17.8199 2.74554C16.6734 3.85974 15.7064 5.16892 14.9466 6.64523C14.7256 7.06305 14.5391 7.4182 14.5322 7.43213C14.5183 7.44606 14.3664 7.18143 14.1937 6.84021C13.1369 4.79288 11.12 3.08677 8.86833 2.33468C8.13617 2.09095 7.36949 1.95168 6.513 1.89597C5.87064 1.86115 5.79467 1.86811 5.5391 2.01435C5.37333 2.10488 5.19375 2.28594 5.10396 2.45307C4.95891 2.71072 4.952 2.78733 4.99344 3.42102C5.0487 4.26363 5.18684 4.9809 5.44931 5.78869C5.67724 6.46417 6.10549 7.37642 6.20909 7.37642C6.24363 7.37642 6.47847 7.32071 6.74094 7.25803C7.06557 7.17447 7.51453 7.13965 8.21215 7.13965C9.80079 7.13269 10.6711 7.37642 12.8054 8.40705C14.4009 9.17306 14.4078 9.17306 15.6097 8.58811L16.48 8.16332L16.8391 7.48087C17.7923 5.68423 19.0908 4.18703 20.7071 3.02409C21.3218 2.57841 21.5429 2.27201 21.5429 1.86115C21.5429 1.33887 21.0317 0.83052 20.5068 0.83052C20.3756 0.83052 20.1269 0.907121 19.9611 1.00461Z" fill="white"/>
<path d="M7.51973 9.06861C6.55614 9.22222 5.23465 9.76987 4.2573 10.4177C3.54149 10.8986 2.51596 11.9137 1.99975 12.6618C-0.774003 16.669 -0.650114 23.1741 2.29571 28.8109C3.1767 30.4873 4.13341 31.7829 5.33101 32.9116C6.83145 34.3142 8.33878 35.0488 9.93558 35.1557C11.0506 35.2225 11.8834 35.0154 13.3081 34.3075C14.4369 33.7465 14.5677 33.7531 15.8548 34.3676C17.3139 35.0622 17.9884 35.2225 19.0897 35.1557C20.6658 35.0555 22.18 34.3208 23.6461 32.945C26.3166 30.4539 28.2093 26.5468 28.8701 22.1856C29.0421 21.0769 29.0421 18.686 28.877 17.5907C28.4709 14.9258 27.5073 12.9089 25.9036 11.3661C24.1485 9.67637 21.8221 8.78142 19.8812 9.05525C19.014 9.18214 18.5184 9.34911 17.0592 10.0303C14.7398 11.1123 14.3612 11.119 12.1656 10.0971C11.5049 9.78323 10.7271 9.45597 10.4449 9.36247C9.46067 9.03521 8.38696 8.92835 7.51973 9.06861Z" fill="white"/>
<path d="M44.3158 13.9127C45.6423 13.9127 46.725 14.3406 47.5638 15.1965C48.4026 16.0524 48.822 17.1605 48.822 18.5207C48.822 19.8809 48.3994 20.9922 47.554 21.8548C46.7087 22.7173 45.6228 23.1486 44.2963 23.1486H40.7557V28.2742H39V13.9127H44.3158ZM40.7557 21.5562H43.8574C44.8588 21.5562 45.6358 21.2875 46.1885 20.75C46.7412 20.2192 47.0176 19.4761 47.0176 18.5207C47.0176 17.5652 46.7445 16.8254 46.1983 16.3013C45.6456 15.7705 44.8653 15.5051 43.8574 15.5051H40.7557V21.5562Z" fill="white"/>
<path d="M50.6265 17.5453H52.2261V19.287H52.2651C52.4212 18.723 52.73 18.2752 53.1917 17.9434C53.6534 17.6117 54.1931 17.4458 54.8108 17.4458C55.0774 17.4458 55.2953 17.469 55.4643 17.5155V19.2273C55.2823 19.1477 54.9897 19.1079 54.5865 19.1079C53.9037 19.1079 53.3575 19.3401 52.9479 19.8046C52.5317 20.269 52.3236 20.8794 52.3236 21.6358V28.2742H50.6265V17.5453Z" fill="white"/>
<path d="M60.8094 28.3737C59.3333 28.3737 58.1564 27.8794 57.2785 26.8908C56.4007 25.9021 55.9618 24.5751 55.9618 22.9097C55.9618 21.2444 56.4007 19.9173 57.2785 18.9287C58.1564 17.9401 59.3333 17.4458 60.8094 17.4458C62.2855 17.4458 63.4624 17.9401 64.3403 18.9287C65.2181 19.9173 65.657 21.2444 65.657 22.9097C65.657 24.5751 65.2181 25.9021 64.3403 26.8908C63.4624 27.8794 62.2855 28.3737 60.8094 28.3737ZM60.8094 26.831C61.7913 26.831 62.5553 26.486 63.1015 25.796C63.6542 25.0993 63.9306 24.1372 63.9306 22.9097C63.9306 21.6756 63.6542 20.7136 63.1015 20.0235C62.5553 19.3335 61.7913 18.9884 60.8094 18.9884C59.8275 18.9884 59.0635 19.3335 58.5173 20.0235C57.9646 20.7202 57.6882 21.6823 57.6882 22.9097C57.6882 24.1372 57.9646 25.0993 58.5173 25.796C59.07 26.486 59.834 26.831 60.8094 26.831Z" fill="white"/>
<path d="M75.1962 24.1638H69.5975L68.1832 28.2742H66.3398L71.5288 13.9127H73.265L78.454 28.2742H76.6105L75.1962 24.1638ZM70.1145 22.641H74.6792L72.4261 16.0923H72.3676L70.1145 22.641Z" fill="white"/>
<path d="M84.9012 17.4458C86.2472 17.4458 87.3331 17.9467 88.1589 18.9486C88.9913 19.9572 89.4074 21.2775 89.4074 22.9097C89.4074 24.542 88.9945 25.8623 88.1687 26.8709C87.3429 27.8727 86.2667 28.3737 84.9402 28.3737C83.3991 28.3737 82.2807 27.7599 81.5849 26.5325H81.5459V31.8571H79.8487V17.5453H81.4581V19.287H81.4971C81.8027 18.7297 82.2644 18.2818 82.8822 17.9434C83.4999 17.6117 84.1729 17.4458 84.9012 17.4458ZM84.5891 26.831C85.5189 26.831 86.2635 26.4761 86.8227 25.7661C87.3884 25.0495 87.6713 24.0974 87.6713 22.9097C87.6713 21.7287 87.3884 20.7799 86.8227 20.0633C86.2635 19.3467 85.5189 18.9884 84.5891 18.9884C83.6852 18.9884 82.9504 19.3501 82.3847 20.0733C81.819 20.7965 81.5361 21.742 81.5361 22.9097C81.5361 24.0775 81.819 25.023 82.3847 25.7462C82.9439 26.4694 83.6787 26.831 84.5891 26.831Z" fill="white"/>
<path d="M96.2546 17.4458C97.6006 17.4458 98.6865 17.9467 99.5123 18.9486C100.345 19.9572 100.761 21.2775 100.761 22.9097C100.761 24.542 100.348 25.8623 99.5221 26.8709C98.6963 27.8727 97.6201 28.3737 96.2936 28.3737C94.7525 28.3737 93.634 27.7599 92.9383 26.5325H92.8993V31.8571H91.2021V17.5453H92.8115V19.287H92.8505C93.1561 18.7297 93.6178 18.2818 94.2355 17.9434C94.8533 17.6117 95.5263 17.4458 96.2546 17.4458ZM95.9424 26.831C96.8723 26.831 97.6168 26.4761 98.1761 25.7661C98.7418 25.0495 99.0246 24.0974 99.0246 22.9097C99.0246 21.7287 98.7418 20.7799 98.1761 20.0633C97.6168 19.3467 96.8723 18.9884 95.9424 18.9884C95.0386 18.9884 94.3038 19.3501 93.7381 20.0733C93.1724 20.7965 92.8895 21.742 92.8895 22.9097C92.8895 24.0775 93.1724 25.023 93.7381 25.7462C94.2973 26.4694 95.0321 26.831 95.9424 26.831Z" fill="white"/>
<path d="M102.653 13.2856H104.35V28.2742H102.653V13.2856Z" fill="white"/>
<path d="M110.944 18.9685C110.118 18.9685 109.435 19.2472 108.895 19.8046C108.349 20.3619 108.047 21.0951 107.988 22.0041H113.772C113.753 21.0951 113.483 20.3619 112.963 19.8046C112.449 19.2472 111.776 18.9685 110.944 18.9685ZM115.411 25.2088C115.268 26.131 114.787 26.8874 113.967 27.478C113.148 28.0751 112.176 28.3737 111.051 28.3737C109.575 28.3737 108.401 27.886 107.53 26.9107C106.665 25.9353 106.233 24.6149 106.233 22.9496C106.233 21.2842 106.665 19.9505 107.53 18.9486C108.395 17.9467 109.542 17.4458 110.973 17.4458C112.378 17.4458 113.489 17.9169 114.309 18.8591C115.128 19.8079 115.538 21.0917 115.538 22.7107V23.3875H107.988V23.487C107.988 24.5088 108.271 25.3249 108.837 25.9353C109.403 26.5457 110.154 26.8509 111.09 26.8509C111.747 26.8509 112.316 26.7017 112.797 26.4031C113.272 26.1111 113.584 25.713 113.733 25.2088H115.411Z" fill="white"/>
</svg>
